<mxfile host="app.diagrams.net" modified="2023-08-22T06:57:27.142Z" agent="Mozilla/5.0 (Windows NT 10.0; Win64; x64) AppleWebKit/537.36 (KHTML, like Gecko) Chrome/115.0.0.0 Safari/537.36" version="21.6.8" etag="-ZnbkDrod2J6PtcG4oBl" type="github">
  <diagram name="Page-1" id="sT1qn2cSge77ydOlkC1N">
    <mxGraphModel>
      <root>
        <mxCell id="0" />
        <mxCell id="1" parent="0" />
      </root>
    </mxGraphModel>
  </diagram>
</mxfile>
